<mxfile host="app.diagrams.net" agent="Mozilla/5.0 (Windows NT 10.0; Win64; x64) AppleWebKit/537.36 (KHTML, like Gecko) Chrome/133.0.0.0 Safari/537.36 OPR/118.0.0.0" version="26.2.14">
  <diagram name="Seite-1" id="iftxT7Ekgkgfnmm2BDrV">
    <mxGraphModel dx="988" dy="659" grid="1" gridSize="10" guides="1" tooltips="1" connect="1" arrows="1" fold="1" page="1" pageScale="1" pageWidth="827" pageHeight="1169" math="0" shadow="0">
      <root>
        <mxCell id="0" />
        <mxCell id="1" parent="0" />
        <mxCell id="iSXmwV41erAyIEa1nU58-2" value="Quest" style="rounded=0;whiteSpace=wrap;html=1;" vertex="1" parent="1">
          <mxGeometry x="130" y="635" width="120" height="60" as="geometry" />
        </mxCell>
        <mxCell id="iSXmwV41erAyIEa1nU58-4" style="edgeStyle=orthogonalEdgeStyle;rounded=0;orthogonalLoop=1;jettySize=auto;html=1;entryX=0;entryY=0.75;entryDx=0;entryDy=0;" edge="1" parent="1" source="iSXmwV41erAyIEa1nU58-3" target="iSXmwV41erAyIEa1nU58-2">
          <mxGeometry relative="1" as="geometry" />
        </mxCell>
        <mxCell id="iSXmwV41erAyIEa1nU58-3" value="&lt;u&gt;q_id&lt;/u&gt;" style="ellipse;whiteSpace=wrap;html=1;aspect=fixed;" vertex="1" parent="1">
          <mxGeometry x="20" y="630" width="60" height="60" as="geometry" />
        </mxCell>
        <mxCell id="iSXmwV41erAyIEa1nU58-5" value="Stadt" style="ellipse;whiteSpace=wrap;html=1;aspect=fixed;" vertex="1" parent="1">
          <mxGeometry x="40" y="710" width="60" height="60" as="geometry" />
        </mxCell>
        <mxCell id="iSXmwV41erAyIEa1nU58-6" style="edgeStyle=orthogonalEdgeStyle;rounded=0;orthogonalLoop=1;jettySize=auto;html=1;entryX=0.088;entryY=1.043;entryDx=0;entryDy=0;entryPerimeter=0;" edge="1" parent="1" source="iSXmwV41erAyIEa1nU58-5" target="iSXmwV41erAyIEa1nU58-2">
          <mxGeometry relative="1" as="geometry" />
        </mxCell>
        <mxCell id="iSXmwV41erAyIEa1nU58-8" style="edgeStyle=orthogonalEdgeStyle;rounded=0;orthogonalLoop=1;jettySize=auto;html=1;entryX=0.5;entryY=1;entryDx=0;entryDy=0;" edge="1" parent="1" source="iSXmwV41erAyIEa1nU58-7" target="iSXmwV41erAyIEa1nU58-2">
          <mxGeometry relative="1" as="geometry" />
        </mxCell>
        <mxCell id="iSXmwV41erAyIEa1nU58-7" value="Bild" style="ellipse;whiteSpace=wrap;html=1;aspect=fixed;" vertex="1" parent="1">
          <mxGeometry x="120" y="750" width="60" height="60" as="geometry" />
        </mxCell>
        <mxCell id="iSXmwV41erAyIEa1nU58-10" style="edgeStyle=orthogonalEdgeStyle;rounded=0;orthogonalLoop=1;jettySize=auto;html=1;entryX=0.75;entryY=1;entryDx=0;entryDy=0;" edge="1" parent="1" source="iSXmwV41erAyIEa1nU58-9" target="iSXmwV41erAyIEa1nU58-2">
          <mxGeometry relative="1" as="geometry" />
        </mxCell>
        <mxCell id="iSXmwV41erAyIEa1nU58-9" value="last_used_d" style="ellipse;whiteSpace=wrap;html=1;aspect=fixed;" vertex="1" parent="1">
          <mxGeometry x="180" y="760" width="70" height="70" as="geometry" />
        </mxCell>
        <mxCell id="iSXmwV41erAyIEa1nU58-12" style="edgeStyle=orthogonalEdgeStyle;rounded=0;orthogonalLoop=1;jettySize=auto;html=1;entryX=1;entryY=0.75;entryDx=0;entryDy=0;" edge="1" parent="1" source="iSXmwV41erAyIEa1nU58-11" target="iSXmwV41erAyIEa1nU58-2">
          <mxGeometry relative="1" as="geometry" />
        </mxCell>
        <mxCell id="iSXmwV41erAyIEa1nU58-11" value="last_used_w" style="ellipse;whiteSpace=wrap;html=1;aspect=fixed;" vertex="1" parent="1">
          <mxGeometry x="265" y="730" width="70" height="70" as="geometry" />
        </mxCell>
        <mxCell id="iSXmwV41erAyIEa1nU58-13" value="User" style="rounded=0;whiteSpace=wrap;html=1;" vertex="1" parent="1">
          <mxGeometry x="130" y="390" width="120" height="60" as="geometry" />
        </mxCell>
        <mxCell id="iSXmwV41erAyIEa1nU58-15" style="edgeStyle=orthogonalEdgeStyle;rounded=0;orthogonalLoop=1;jettySize=auto;html=1;entryX=0;entryY=0;entryDx=0;entryDy=0;" edge="1" parent="1" source="iSXmwV41erAyIEa1nU58-14" target="iSXmwV41erAyIEa1nU58-13">
          <mxGeometry relative="1" as="geometry" />
        </mxCell>
        <mxCell id="iSXmwV41erAyIEa1nU58-14" value="&lt;u&gt;u_id&lt;/u&gt;" style="ellipse;whiteSpace=wrap;html=1;aspect=fixed;" vertex="1" parent="1">
          <mxGeometry x="40" y="360" width="60" height="60" as="geometry" />
        </mxCell>
        <mxCell id="iSXmwV41erAyIEa1nU58-16" value="username" style="ellipse;whiteSpace=wrap;html=1;aspect=fixed;" vertex="1" parent="1">
          <mxGeometry x="60" y="300" width="60" height="60" as="geometry" />
        </mxCell>
        <mxCell id="iSXmwV41erAyIEa1nU58-17" style="edgeStyle=orthogonalEdgeStyle;rounded=0;orthogonalLoop=1;jettySize=auto;html=1;" edge="1" parent="1" source="iSXmwV41erAyIEa1nU58-16">
          <mxGeometry relative="1" as="geometry">
            <mxPoint x="170" y="390" as="targetPoint" />
            <Array as="points">
              <mxPoint x="171" y="350" />
            </Array>
          </mxGeometry>
        </mxCell>
        <mxCell id="iSXmwV41erAyIEa1nU58-19" style="edgeStyle=orthogonalEdgeStyle;rounded=0;orthogonalLoop=1;jettySize=auto;html=1;entryX=0.75;entryY=0;entryDx=0;entryDy=0;" edge="1" parent="1" source="iSXmwV41erAyIEa1nU58-18" target="iSXmwV41erAyIEa1nU58-13">
          <mxGeometry relative="1" as="geometry" />
        </mxCell>
        <mxCell id="iSXmwV41erAyIEa1nU58-18" value="passwort" style="ellipse;whiteSpace=wrap;html=1;aspect=fixed;" vertex="1" parent="1">
          <mxGeometry x="130" y="240" width="60" height="60" as="geometry" />
        </mxCell>
        <mxCell id="iSXmwV41erAyIEa1nU58-21" style="edgeStyle=orthogonalEdgeStyle;rounded=0;orthogonalLoop=1;jettySize=auto;html=1;entryX=0.917;entryY=0;entryDx=0;entryDy=0;entryPerimeter=0;" edge="1" parent="1" source="iSXmwV41erAyIEa1nU58-20" target="iSXmwV41erAyIEa1nU58-13">
          <mxGeometry relative="1" as="geometry">
            <mxPoint x="270" y="390" as="targetPoint" />
          </mxGeometry>
        </mxCell>
        <mxCell id="iSXmwV41erAyIEa1nU58-20" value="&lt;font style=&quot;font-size: 9px;&quot;&gt;anzahl_quest&lt;/font&gt;" style="ellipse;whiteSpace=wrap;html=1;aspect=fixed;" vertex="1" parent="1">
          <mxGeometry x="210" y="270" width="60" height="60" as="geometry" />
        </mxCell>
        <mxCell id="iSXmwV41erAyIEa1nU58-23" style="edgeStyle=orthogonalEdgeStyle;rounded=0;orthogonalLoop=1;jettySize=auto;html=1;entryX=0;entryY=0.5;entryDx=0;entryDy=0;" edge="1" parent="1" source="iSXmwV41erAyIEa1nU58-22" target="iSXmwV41erAyIEa1nU58-13">
          <mxGeometry relative="1" as="geometry" />
        </mxCell>
        <mxCell id="iSXmwV41erAyIEa1nU58-22" value="mÃ¼nzen" style="ellipse;whiteSpace=wrap;html=1;aspect=fixed;" vertex="1" parent="1">
          <mxGeometry x="40" y="430" width="60" height="60" as="geometry" />
        </mxCell>
        <mxCell id="iSXmwV41erAyIEa1nU58-25" style="edgeStyle=orthogonalEdgeStyle;rounded=0;orthogonalLoop=1;jettySize=auto;html=1;entryX=1;entryY=0.5;entryDx=0;entryDy=0;" edge="1" parent="1" source="iSXmwV41erAyIEa1nU58-24" target="iSXmwV41erAyIEa1nU58-2">
          <mxGeometry relative="1" as="geometry" />
        </mxCell>
        <mxCell id="iSXmwV41erAyIEa1nU58-24" value="koordinaten" style="ellipse;whiteSpace=wrap;html=1;aspect=fixed;" vertex="1" parent="1">
          <mxGeometry x="320" y="680" width="70" height="70" as="geometry" />
        </mxCell>
        <mxCell id="iSXmwV41erAyIEa1nU58-27" value="m" style="edgeStyle=orthogonalEdgeStyle;rounded=0;orthogonalLoop=1;jettySize=auto;html=1;" edge="1" parent="1" source="iSXmwV41erAyIEa1nU58-26" target="iSXmwV41erAyIEa1nU58-13">
          <mxGeometry relative="1" as="geometry" />
        </mxCell>
        <mxCell id="iSXmwV41erAyIEa1nU58-28" style="edgeStyle=orthogonalEdgeStyle;rounded=0;orthogonalLoop=1;jettySize=auto;html=1;entryX=0.5;entryY=0;entryDx=0;entryDy=0;" edge="1" parent="1" source="iSXmwV41erAyIEa1nU58-26" target="iSXmwV41erAyIEa1nU58-2">
          <mxGeometry relative="1" as="geometry" />
        </mxCell>
        <mxCell id="iSXmwV41erAyIEa1nU58-29" value="n" style="edgeLabel;html=1;align=center;verticalAlign=middle;resizable=0;points=[];" vertex="1" connectable="0" parent="iSXmwV41erAyIEa1nU58-28">
          <mxGeometry x="-0.648" relative="1" as="geometry">
            <mxPoint as="offset" />
          </mxGeometry>
        </mxCell>
        <mxCell id="iSXmwV41erAyIEa1nU58-26" value="hat" style="rhombus;whiteSpace=wrap;html=1;" vertex="1" parent="1">
          <mxGeometry x="140" y="480" width="100" height="60" as="geometry" />
        </mxCell>
        <mxCell id="iSXmwV41erAyIEa1nU58-32" style="edgeStyle=orthogonalEdgeStyle;rounded=0;orthogonalLoop=1;jettySize=auto;html=1;entryX=1;entryY=0.5;entryDx=0;entryDy=0;" edge="1" parent="1" source="iSXmwV41erAyIEa1nU58-31" target="iSXmwV41erAyIEa1nU58-13">
          <mxGeometry relative="1" as="geometry" />
        </mxCell>
        <mxCell id="iSXmwV41erAyIEa1nU58-51" value="n" style="edgeLabel;html=1;align=center;verticalAlign=middle;resizable=0;points=[];" vertex="1" connectable="0" parent="iSXmwV41erAyIEa1nU58-32">
          <mxGeometry x="-0.008" relative="1" as="geometry">
            <mxPoint as="offset" />
          </mxGeometry>
        </mxCell>
        <mxCell id="iSXmwV41erAyIEa1nU58-34" style="edgeStyle=orthogonalEdgeStyle;rounded=0;orthogonalLoop=1;jettySize=auto;html=1;entryX=0;entryY=0.5;entryDx=0;entryDy=0;" edge="1" parent="1" source="iSXmwV41erAyIEa1nU58-31" target="iSXmwV41erAyIEa1nU58-33">
          <mxGeometry relative="1" as="geometry" />
        </mxCell>
        <mxCell id="iSXmwV41erAyIEa1nU58-52" value="m" style="edgeLabel;html=1;align=center;verticalAlign=middle;resizable=0;points=[];" vertex="1" connectable="0" parent="iSXmwV41erAyIEa1nU58-34">
          <mxGeometry x="-0.232" relative="1" as="geometry">
            <mxPoint as="offset" />
          </mxGeometry>
        </mxCell>
        <mxCell id="iSXmwV41erAyIEa1nU58-31" value="besitzt" style="rhombus;whiteSpace=wrap;html=1;" vertex="1" parent="1">
          <mxGeometry x="300" y="390" width="100" height="60" as="geometry" />
        </mxCell>
        <mxCell id="iSXmwV41erAyIEa1nU58-33" value="item" style="rounded=0;whiteSpace=wrap;html=1;" vertex="1" parent="1">
          <mxGeometry x="450" y="390" width="120" height="60" as="geometry" />
        </mxCell>
        <mxCell id="iSXmwV41erAyIEa1nU58-36" style="edgeStyle=orthogonalEdgeStyle;rounded=0;orthogonalLoop=1;jettySize=auto;html=1;entryX=1;entryY=0.25;entryDx=0;entryDy=0;" edge="1" parent="1" source="iSXmwV41erAyIEa1nU58-35" target="iSXmwV41erAyIEa1nU58-33">
          <mxGeometry relative="1" as="geometry" />
        </mxCell>
        <mxCell id="iSXmwV41erAyIEa1nU58-35" value="&lt;u&gt;i_id&lt;/u&gt;" style="ellipse;whiteSpace=wrap;html=1;aspect=fixed;" vertex="1" parent="1">
          <mxGeometry x="600" y="340" width="60" height="60" as="geometry" />
        </mxCell>
        <mxCell id="iSXmwV41erAyIEa1nU58-38" style="edgeStyle=orthogonalEdgeStyle;rounded=0;orthogonalLoop=1;jettySize=auto;html=1;" edge="1" parent="1" source="iSXmwV41erAyIEa1nU58-37" target="iSXmwV41erAyIEa1nU58-33">
          <mxGeometry relative="1" as="geometry" />
        </mxCell>
        <mxCell id="iSXmwV41erAyIEa1nU58-37" value="name" style="ellipse;whiteSpace=wrap;html=1;aspect=fixed;" vertex="1" parent="1">
          <mxGeometry x="610" y="420" width="60" height="60" as="geometry" />
        </mxCell>
        <mxCell id="iSXmwV41erAyIEa1nU58-39" value="bild" style="ellipse;whiteSpace=wrap;html=1;aspect=fixed;" vertex="1" parent="1">
          <mxGeometry x="560" y="470" width="60" height="60" as="geometry" />
        </mxCell>
        <mxCell id="iSXmwV41erAyIEa1nU58-40" style="edgeStyle=orthogonalEdgeStyle;rounded=0;orthogonalLoop=1;jettySize=auto;html=1;entryX=0.833;entryY=1;entryDx=0;entryDy=0;entryPerimeter=0;" edge="1" parent="1" source="iSXmwV41erAyIEa1nU58-39" target="iSXmwV41erAyIEa1nU58-33">
          <mxGeometry relative="1" as="geometry">
            <Array as="points">
              <mxPoint x="550" y="480" />
            </Array>
          </mxGeometry>
        </mxCell>
        <mxCell id="iSXmwV41erAyIEa1nU58-42" style="edgeStyle=orthogonalEdgeStyle;rounded=0;orthogonalLoop=1;jettySize=auto;html=1;" edge="1" parent="1" source="iSXmwV41erAyIEa1nU58-41" target="iSXmwV41erAyIEa1nU58-33">
          <mxGeometry relative="1" as="geometry" />
        </mxCell>
        <mxCell id="iSXmwV41erAyIEa1nU58-41" value="preis" style="ellipse;whiteSpace=wrap;html=1;aspect=fixed;" vertex="1" parent="1">
          <mxGeometry x="480" y="480" width="60" height="60" as="geometry" />
        </mxCell>
        <mxCell id="iSXmwV41erAyIEa1nU58-43" value="admin" style="ellipse;whiteSpace=wrap;html=1;aspect=fixed;" vertex="1" parent="1">
          <mxGeometry x="20" y="500" width="60" height="60" as="geometry" />
        </mxCell>
        <mxCell id="iSXmwV41erAyIEa1nU58-44" style="edgeStyle=orthogonalEdgeStyle;rounded=0;orthogonalLoop=1;jettySize=auto;html=1;entryX=0.065;entryY=1;entryDx=0;entryDy=0;entryPerimeter=0;" edge="1" parent="1" source="iSXmwV41erAyIEa1nU58-43" target="iSXmwV41erAyIEa1nU58-13">
          <mxGeometry relative="1" as="geometry" />
        </mxCell>
        <mxCell id="iSXmwV41erAyIEa1nU58-46" style="edgeStyle=orthogonalEdgeStyle;rounded=0;orthogonalLoop=1;jettySize=auto;html=1;entryX=0;entryY=0;entryDx=0;entryDy=0;" edge="1" parent="1" source="iSXmwV41erAyIEa1nU58-45" target="iSXmwV41erAyIEa1nU58-31">
          <mxGeometry relative="1" as="geometry" />
        </mxCell>
        <mxCell id="iSXmwV41erAyIEa1nU58-45" value="&lt;u&gt;ui_id&lt;/u&gt;" style="ellipse;whiteSpace=wrap;html=1;aspect=fixed;" vertex="1" parent="1">
          <mxGeometry x="290" y="280" width="60" height="60" as="geometry" />
        </mxCell>
        <mxCell id="iSXmwV41erAyIEa1nU58-48" style="edgeStyle=orthogonalEdgeStyle;rounded=0;orthogonalLoop=1;jettySize=auto;html=1;entryX=0.5;entryY=0;entryDx=0;entryDy=0;" edge="1" parent="1" source="iSXmwV41erAyIEa1nU58-47" target="iSXmwV41erAyIEa1nU58-31">
          <mxGeometry relative="1" as="geometry" />
        </mxCell>
        <mxCell id="iSXmwV41erAyIEa1nU58-47" value="&lt;i&gt;u_id&lt;/i&gt;" style="ellipse;whiteSpace=wrap;html=1;aspect=fixed;" vertex="1" parent="1">
          <mxGeometry x="360" y="280" width="60" height="60" as="geometry" />
        </mxCell>
        <mxCell id="iSXmwV41erAyIEa1nU58-49" value="&lt;i&gt;i_id&lt;/i&gt;" style="ellipse;whiteSpace=wrap;html=1;aspect=fixed;" vertex="1" parent="1">
          <mxGeometry x="430" y="300" width="60" height="60" as="geometry" />
        </mxCell>
        <mxCell id="iSXmwV41erAyIEa1nU58-50" style="edgeStyle=orthogonalEdgeStyle;rounded=0;orthogonalLoop=1;jettySize=auto;html=1;" edge="1" parent="1" source="iSXmwV41erAyIEa1nU58-49">
          <mxGeometry relative="1" as="geometry">
            <mxPoint x="385" y="410" as="targetPoint" />
            <Array as="points">
              <mxPoint x="460" y="370" />
              <mxPoint x="385" y="370" />
            </Array>
          </mxGeometry>
        </mxCell>
        <mxCell id="iSXmwV41erAyIEa1nU58-53" value="&lt;i&gt;u_id&lt;/i&gt;" style="ellipse;whiteSpace=wrap;html=1;aspect=fixed;" vertex="1" parent="1">
          <mxGeometry x="275" y="470" width="60" height="60" as="geometry" />
        </mxCell>
        <mxCell id="iSXmwV41erAyIEa1nU58-54" value="&lt;i&gt;q_id&lt;/i&gt;" style="ellipse;whiteSpace=wrap;html=1;aspect=fixed;" vertex="1" parent="1">
          <mxGeometry x="240" y="540" width="60" height="60" as="geometry" />
        </mxCell>
        <mxCell id="iSXmwV41erAyIEa1nU58-55" style="edgeStyle=orthogonalEdgeStyle;rounded=0;orthogonalLoop=1;jettySize=auto;html=1;entryX=1;entryY=0;entryDx=0;entryDy=0;" edge="1" parent="1" source="iSXmwV41erAyIEa1nU58-53" target="iSXmwV41erAyIEa1nU58-26">
          <mxGeometry relative="1" as="geometry" />
        </mxCell>
        <mxCell id="iSXmwV41erAyIEa1nU58-56" value="" style="edgeStyle=orthogonalEdgeStyle;rounded=0;orthogonalLoop=1;jettySize=auto;html=1;entryX=1;entryY=1;entryDx=0;entryDy=0;" edge="1" parent="1" source="iSXmwV41erAyIEa1nU58-54" target="iSXmwV41erAyIEa1nU58-26">
          <mxGeometry relative="1" as="geometry">
            <Array as="points">
              <mxPoint x="270" y="530" />
              <mxPoint x="224" y="530" />
              <mxPoint x="224" y="525" />
            </Array>
          </mxGeometry>
        </mxCell>
        <mxCell id="iSXmwV41erAyIEa1nU58-58" style="edgeStyle=orthogonalEdgeStyle;rounded=0;orthogonalLoop=1;jettySize=auto;html=1;entryX=0;entryY=1;entryDx=0;entryDy=0;" edge="1" parent="1" source="iSXmwV41erAyIEa1nU58-57" target="iSXmwV41erAyIEa1nU58-26">
          <mxGeometry relative="1" as="geometry">
            <Array as="points">
              <mxPoint x="130" y="540" />
              <mxPoint x="165" y="540" />
            </Array>
          </mxGeometry>
        </mxCell>
        <mxCell id="iSXmwV41erAyIEa1nU58-57" value="&lt;i&gt;qu_id&lt;/i&gt;" style="ellipse;whiteSpace=wrap;html=1;aspect=fixed;" vertex="1" parent="1">
          <mxGeometry x="100" y="550" width="60" height="60" as="geometry" />
        </mxCell>
      </root>
    </mxGraphModel>
  </diagram>
</mxfile>
